<svg width="40" height="40" viewBox="0 0 40 40" fill="none" xmlns="http://www.w3.org/2000/svg">
<circle cx="20" cy="20" r="20" fill="#27ADE3"/>
<path d="M19.0064 25.8883C19.4214 25.8883 19.6704 26.2203 19.6704 26.5523C19.6704 26.9673 19.3384 27.2163 19.0064 27.2163C18.5914 27.2163 18.3424 26.8843 18.3424 26.5523C18.3424 26.2203 18.5914 25.8883 19.0064 25.8883ZM29.8796 21.6552C29.4646 21.6552 29.2156 21.3232 29.2156 20.9912C29.2156 20.6592 29.5476 20.3272 29.8796 20.3272C30.2946 20.3272 30.5436 20.6592 30.5436 20.9912C30.5436 21.3232 30.2116 21.6552 29.8796 21.6552ZM29.8796 18.8332C28.7175 18.8332 27.7215 19.8292 27.7215 20.9912C27.7215 21.2402 27.7215 21.4892 27.8045 21.6552L20.7494 25.3903C20.3344 24.8093 19.6704 24.4773 19.0064 24.4773C18.1764 24.4773 17.4294 24.9753 17.0974 25.6393L10.7893 22.3192C10.1253 21.9872 9.62728 20.8252 9.71028 19.8292C9.71028 19.3312 9.95928 18.9162 10.2083 18.7502C10.3743 18.6672 10.6233 18.6672 10.7893 18.7502H10.8723C12.5323 19.6632 18.0934 22.4852 18.2594 22.6512C18.5914 22.8172 18.8404 22.9002 19.4214 22.5682L30.7926 16.6751C30.9586 16.5921 31.1246 16.4261 31.1246 16.1771C31.1246 15.8451 30.7926 15.6791 30.7926 15.6791C30.1286 15.3471 29.1326 14.9321 28.2195 14.4341C26.1445 13.4381 23.8205 12.3591 22.7415 11.8611C21.8284 11.3631 21.1644 11.7781 20.9984 11.8611L20.7494 11.9441C16.1014 14.2681 9.87628 17.3392 9.54428 17.5052C8.88027 17.9202 8.54826 18.6672 8.46526 19.5802C8.38226 21.0742 9.12927 22.6512 10.2913 23.2322L17.0144 26.7183C17.1804 27.7973 18.0934 28.5443 19.0894 28.5443C20.2514 28.5443 21.2474 27.6313 21.2474 26.4693L28.6345 22.4852C29.0496 22.8172 29.4646 22.9002 29.9626 22.9002C31.1246 22.9002 32.1206 21.9042 32.1206 20.7422C31.9546 19.7462 31.0416 18.8332 29.8796 18.8332Z" fill="white"/>
</svg>
