<svg width="252" height="22" viewBox="0 0 252 22" fill="none" xmlns="http://www.w3.org/2000/svg">
<path d="M0.024967 22L10.0829 0.878438L20.1407 22H15.6147L10.0829 10.4334L4.55102 22H0.024967ZM25.1697 22H21.1465V1.88423H35.2276C36.9039 1.88423 38.3288 2.47094 39.5022 3.64436C40.6756 4.81778 41.2623 6.24264 41.2623 7.91896C41.2623 9.59527 40.6756 11.0201 39.5022 12.1936C38.3288 13.367 36.9039 13.9537 35.2276 13.9537H30.1986V9.93054H35.2276C35.7933 9.93054 36.2648 9.74195 36.642 9.36478C37.0401 8.96665 37.2391 8.48471 37.2391 7.91896C37.2391 7.3532 37.0401 6.88174 36.642 6.50457C36.2648 6.10644 35.7933 5.90738 35.2276 5.90738H25.1697V22ZM54.1804 5.90738V22H50.1572V5.90738H42.1109V1.88423H62.2267V5.90738H54.1804ZM71.3731 22C68.5862 22 66.208 21.0256 64.2383 19.0769C62.2896 17.1073 61.3152 14.729 61.3152 11.9421C61.3152 9.15524 62.2896 6.78745 64.2383 4.83873C66.208 2.86906 68.5862 1.88423 71.3731 1.88423C74.16 1.88423 76.5278 2.86906 78.4765 4.83873C80.4462 6.78745 81.431 9.15524 81.431 11.9421C81.431 14.729 80.4462 17.1073 78.4765 19.0769C76.5278 21.0256 74.16 22 71.3731 22ZM71.3731 17.9768C73.0494 17.9768 74.4743 17.3901 75.6477 16.2167C76.8211 15.0433 77.4078 13.6184 77.4078 11.9421C77.4078 10.2658 76.8211 8.84093 75.6477 7.66751C74.4743 6.49409 73.0494 5.90738 71.3731 5.90738C69.6968 5.90738 68.2719 6.49409 67.0985 7.66751C65.9251 8.84093 65.3384 10.2658 65.3384 11.9421C65.3384 13.6184 65.9251 15.0433 67.0985 16.2167C68.2719 17.3901 69.6968 17.9768 71.3731 17.9768ZM104.721 22H80.5824V17.9768H104.721C105.287 17.9768 105.759 17.7883 106.136 17.4111C106.534 17.013 106.733 16.531 106.733 15.9653C106.733 15.3995 106.534 14.928 106.136 14.5509C105.759 14.1528 105.287 13.9537 104.721 13.9537H96.675C94.9987 13.9537 93.5738 13.367 92.4004 12.1936C91.227 11.0201 90.6402 9.59527 90.6402 7.91896C90.6402 6.24264 91.227 4.81778 92.4004 3.64436C93.5738 2.47094 94.9987 1.88423 96.675 1.88423H108.744V5.90738H96.675C96.1092 5.90738 95.6273 6.10644 95.2292 6.50457C94.852 6.88174 94.6634 7.3532 94.6634 7.91896C94.6634 8.48471 94.852 8.96665 95.2292 9.36478C95.6273 9.74195 96.1092 9.93054 96.675 9.93054H104.721C106.398 9.93054 107.822 10.5172 108.996 11.6907C110.169 12.8641 110.756 14.289 110.756 15.9653C110.756 17.6416 110.169 19.0664 108.996 20.2399C107.822 21.4133 106.398 22 104.721 22ZM134.895 22H130.872V1.88423H144.953C146.629 1.88423 148.054 2.47094 149.227 3.64436C150.401 4.81778 150.988 6.24264 150.988 7.91896C150.988 9.59527 150.401 11.0201 149.227 12.1936C148.054 13.367 146.629 13.9537 144.953 13.9537H139.924V9.93054H144.953C145.519 9.93054 145.99 9.74195 146.367 9.36478C146.765 8.96665 146.964 8.48471 146.964 7.91896C146.964 7.3532 146.765 6.88174 146.367 6.50457C145.99 6.10644 145.519 5.90738 144.953 5.90738H134.895V22ZM152.936 11.9421V1.88423H156.959V11.9421C156.959 13.6184 157.546 15.0433 158.72 16.2167C159.893 17.3901 161.318 17.9768 162.994 17.9768C164.67 17.9768 166.095 17.3901 167.269 16.2167C168.442 15.0433 169.029 13.6184 169.029 11.9421V1.88423H173.052V11.9421C173.052 14.729 172.067 17.1073 170.098 19.0769C168.149 21.0256 165.781 22 162.994 22C160.207 22 157.829 21.0256 155.859 19.0769C153.911 17.1073 152.936 14.729 152.936 11.9421ZM180.47 7.91896V22H176.447V1.88423H180.47L192.539 15.9653V1.88423H196.562V22H192.539L180.47 7.91896ZM205.049 14.8023V22H201.026V1.88423H205.049V9.0819L215.107 1.88423H221.141L207.06 11.9421L221.141 22H215.107L205.049 14.8023ZM245.94 22H221.801V17.9768H245.94C246.506 17.9768 246.978 17.7883 247.355 17.4111C247.753 17.013 247.952 16.531 247.952 15.9653C247.952 15.3995 247.753 14.928 247.355 14.5509C246.978 14.1528 246.506 13.9537 245.94 13.9537H237.894C236.218 13.9537 234.793 13.367 233.619 12.1936C232.446 11.0201 231.859 9.59527 231.859 7.91896C231.859 6.24264 232.446 4.81778 233.619 3.64436C234.793 2.47094 236.218 1.88423 237.894 1.88423H249.963V5.90738H237.894C237.328 5.90738 236.846 6.10644 236.448 6.50457C236.071 6.88174 235.882 7.3532 235.882 7.91896C235.882 8.48471 236.071 8.96665 236.448 9.36478C236.846 9.74195 237.328 9.93054 237.894 9.93054H245.94C247.617 9.93054 249.041 10.5172 250.215 11.6907C251.388 12.8641 251.975 14.289 251.975 15.9653C251.975 17.6416 251.388 19.0664 250.215 20.2399C249.041 21.4133 247.617 22 245.94 22Z" fill="white"/>
</svg>
