<svg width="732" height="124" viewBox="0 0 732 124" fill="none" xmlns="http://www.w3.org/2000/svg">
<path d="M4.57031 98L30.8203 42.875L57.0703 98H45.2578L30.8203 67.8125L16.3828 98H4.57031ZM70.1953 98H59.6953V45.5H96.4453C100.82 45.5 104.539 47.0312 107.602 50.0938C110.664 53.1562 112.195 56.875 112.195 61.25C112.195 65.625 110.664 69.3438 107.602 72.4062C104.539 75.4688 100.82 77 96.4453 77H83.3203V66.5H96.4453C97.9219 66.5 99.1523 66.0078 100.137 65.0234C101.176 63.9844 101.695 62.7266 101.695 61.25C101.695 59.7734 101.176 58.543 100.137 57.5586C99.1523 56.5195 97.9219 56 96.4453 56H70.1953V98ZM145.91 56V98H135.41V56H114.41V45.5H166.91V56H145.91ZM190.781 98C183.508 98 177.301 95.457 172.16 90.3711C167.074 85.2305 164.531 79.0234 164.531 71.75C164.531 64.4766 167.074 58.2969 172.16 53.2109C177.301 48.0703 183.508 45.5 190.781 45.5C198.055 45.5 204.234 48.0703 209.32 53.2109C214.461 58.2969 217.031 64.4766 217.031 71.75C217.031 79.0234 214.461 85.2305 209.32 90.3711C204.234 95.457 198.055 98 190.781 98ZM190.781 87.5C195.156 87.5 198.875 85.9688 201.938 82.9062C205 79.8438 206.531 76.125 206.531 71.75C206.531 67.375 205 63.6562 201.938 60.5938C198.875 57.5312 195.156 56 190.781 56C186.406 56 182.688 57.5312 179.625 60.5938C176.562 63.6562 175.031 67.375 175.031 71.75C175.031 76.125 176.562 79.8438 179.625 82.9062C182.688 85.9688 186.406 87.5 190.781 87.5ZM277.816 98H214.816V87.5H277.816C279.293 87.5 280.523 87.0078 281.508 86.0234C282.547 84.9844 283.066 83.7266 283.066 82.25C283.066 80.7734 282.547 79.543 281.508 78.5586C280.523 77.5195 279.293 77 277.816 77H256.816C252.441 77 248.723 75.4688 245.66 72.4062C242.598 69.3438 241.066 65.625 241.066 61.25C241.066 56.875 242.598 53.1562 245.66 50.0938C248.723 47.0312 252.441 45.5 256.816 45.5H288.316V56H256.816C255.34 56 254.082 56.5195 253.043 57.5586C252.059 58.543 251.566 59.7734 251.566 61.25C251.566 62.7266 252.059 63.9844 253.043 65.0234C254.082 66.0078 255.34 66.5 256.816 66.5H277.816C282.191 66.5 285.91 68.0312 288.973 71.0938C292.035 74.1562 293.566 77.875 293.566 82.25C293.566 86.625 292.035 90.3438 288.973 93.4062C285.91 96.4688 282.191 98 277.816 98ZM356.566 77V98H346.066V45.5H356.566V66.5H388.066V45.5H398.566V98H388.066V77H356.566ZM407.426 71.75V45.5H417.926V71.75C417.926 76.125 419.457 79.8438 422.52 82.9062C425.582 85.9688 429.301 87.5 433.676 87.5C438.051 87.5 441.77 85.9688 444.832 82.9062C447.895 79.8438 449.426 76.125 449.426 71.75V19.25H459.926V71.75C459.926 79.0234 457.355 85.2305 452.215 90.3711C447.129 95.457 440.949 98 433.676 98C426.402 98 420.195 95.457 415.055 90.3711C409.969 85.2305 407.426 79.0234 407.426 71.75ZM479.613 66.5V119H469.113V45.5H479.613L500.613 84.875L521.613 45.5H532.113V98H521.613V66.5L505.863 98H495.363L479.613 66.5ZM534.738 98L560.988 42.875L587.238 98H575.426L560.988 67.8125L546.551 98H534.738ZM600.855 61.25V119H590.355V45.5H600.855L632.355 82.25V19.25H642.855V98H632.355L600.855 61.25ZM711.68 98H648.68V87.5H711.68C713.156 87.5 714.387 87.0078 715.371 86.0234C716.41 84.9844 716.93 83.7266 716.93 82.25C716.93 80.7734 716.41 79.543 715.371 78.5586C714.387 77.5195 713.156 77 711.68 77H690.68C686.305 77 682.586 75.4688 679.523 72.4062C676.461 69.3438 674.93 65.625 674.93 61.25C674.93 56.875 676.461 53.1562 679.523 50.0938C682.586 47.0312 686.305 45.5 690.68 45.5H722.18V56H690.68C689.203 56 687.945 56.5195 686.906 57.5586C685.922 58.543 685.43 59.7734 685.43 61.25C685.43 62.7266 685.922 63.9844 686.906 65.0234C687.945 66.0078 689.203 66.5 690.68 66.5H711.68C716.055 66.5 719.773 68.0312 722.836 71.0938C725.898 74.1562 727.43 77.875 727.43 82.25C727.43 86.625 725.898 90.3438 722.836 93.4062C719.773 96.4688 716.055 98 711.68 98Z" fill="white"/>
</svg>
