<svg width="273" height="52" viewBox="0 0 273 52" fill="none" xmlns="http://www.w3.org/2000/svg">
<path d="M17.0053 17.0054H0V34.0106H17.0053V17.0054Z" fill="#0D7D83"/>
<path d="M17.0053 17.0054H0V34.0106H17.0053V17.0054Z" fill="#0C7272"/>
<path d="M17.0053 0H0V17.0053H17.0053V0Z" fill="#8DC6B0"/>
<path d="M34.0111 0H17.0059V17.0053H34.0111V0Z" fill="#AAD1C3"/>
<path d="M51.016 0H34.0107V17.0053H51.016V0Z" fill="#B3DDCF"/>
<path d="M68.0209 17.0054H51.0156V34.0106H68.0209V17.0054Z" fill="#0D7D83"/>
<path d="M34.0111 17.0054H17.0059V34.0106H34.0111V17.0054Z" fill="#0D7D83"/>
<path d="M51.016 17.0054H34.0107V34.0106H51.016V17.0054Z" fill="#0D7D83"/>
<path d="M68.0209 17.0054H51.0156V34.0106H68.0209V17.0054Z" fill="#0D7D83"/>
<path d="M68.0209 0H51.0156V17.0053H68.0209V0Z" fill="#8DC6B0"/>
<path d="M85.0258 0H68.0205V17.0053H85.0258V0Z" fill="#B3DDCF"/>
<path d="M102.032 0H85.0264V17.0053H102.032V0Z" fill="#B3DDCF"/>
<path d="M119.037 17.0054H102.032V34.0106H119.037V17.0054Z" fill="#0D7D83"/>
<path d="M85.0258 17.0054H68.0205V34.0106H85.0258V17.0054Z" fill="#0D7D83"/>
<path d="M102.032 17.0054H85.0264V34.0106H102.032V17.0054Z" fill="#0C7272"/>
<path d="M119.037 17.0054H102.032V34.0106H119.037V17.0054Z" fill="#0D7D83"/>
<path d="M119.037 0H102.032V17.0053H119.037V0Z" fill="#B3DDCF"/>
<path d="M136.041 0H119.036V17.0053H136.041V0Z" fill="#B3DDCF"/>
<path d="M136.041 17.0054H119.036V34.0106H136.041V17.0054Z" fill="#0D7D83"/>
<path d="M17.0053 34.0107H0V51.016H17.0053V34.0107Z" fill="#74A392"/>
<path d="M34.0111 34.0107H17.0059V51.016H34.0111V34.0107Z" fill="#AAD1C3"/>
<path d="M51.016 34.0107H34.0107V51.016H51.016V34.0107Z" fill="#B3DDCF"/>
<path d="M68.0209 34.0107H51.0156V51.016H68.0209V34.0107Z" fill="#B3DDCF"/>
<path d="M85.0258 34.0107H68.0205V51.016H85.0258V34.0107Z" fill="#B3DDCF"/>
<path d="M102.032 34.0107H85.0264V51.016H102.032V34.0107Z" fill="#B3DDCF"/>
<path d="M119.037 34.0107H102.032V51.016H119.037V34.0107Z" fill="#B3DDCF"/>
<path d="M136.041 34.0107H119.036V51.016H136.041V34.0107Z" fill="#B3DDCF"/>
<path d="M187.001 0H169.996V17.0053H187.001V0Z" fill="#B3DDCF"/>
<path d="M204.006 0H187.001V17.0053H204.006V0Z" fill="#B3DDCF"/>
<path d="M221.012 17.0054H204.007V34.0106H221.012V17.0054Z" fill="#0D7D83"/>
<path d="M187.001 17.0054H169.996V34.0106H187.001V17.0054Z" fill="#0D7D83"/>
<path d="M204.006 17.0054H187.001V34.0106H204.006V17.0054Z" fill="#0D7D83"/>
<path d="M221.012 17.0054H204.007V34.0106H221.012V17.0054Z" fill="#0D7D83"/>
<path d="M221.012 0H204.007V17.0053H221.012V0Z" fill="#B3DDCF"/>
<path d="M238.016 0H221.011V17.0053H238.016V0Z" fill="#B3DDCF"/>
<path d="M255.022 0H238.017V17.0053H255.022V0Z" fill="#8DC6B0"/>
<path d="M272.028 17.0054H255.022V34.0106H272.028V17.0054Z" fill="#0D7D83"/>
<path d="M238.016 17.0054H221.011V34.0106H238.016V17.0054Z" fill="#0C7272"/>
<path d="M255.022 17.0054H238.017V34.0106H255.022V17.0054Z" fill="#0D7D83"/>
<path d="M272.028 17.0054H255.022V34.0106H272.028V17.0054Z" fill="#0C7272"/>
<path d="M272.028 0H255.022V17.0053H272.028V0Z" fill="#74A392"/>
<path d="M187.001 34.0107H169.996V51.016H187.001V34.0107Z" fill="#B3DDCF"/>
<path d="M204.006 34.0107H187.001V51.016H204.006V34.0107Z" fill="#B3DDCF"/>
<path d="M221.012 34.0107H204.007V51.016H221.012V34.0107Z" fill="#8DC6B0"/>
<path d="M238.016 34.0107H221.011V51.016H238.016V34.0107Z" fill="#B3DDCF"/>
<path d="M255.022 34.0107H238.017V51.016H255.022V34.0107Z" fill="#8DC6B0"/>
<path d="M272.028 34.0107H255.022V51.016H272.028V34.0107Z" fill="#74A392"/>
<path d="M152.991 17.0054H135.985V34.0106H152.991V17.0054Z" fill="#0C7272"/>
<path d="M169.995 17.0054H152.99V34.0106H169.995V17.0054Z" fill="#0D7D83"/>
<path d="M152.991 34.0107H135.985V51.016H152.991V34.0107Z" fill="#B3DDCF"/>
<path d="M169.995 34.0107H152.99V51.016H169.995V34.0107Z" fill="#8DC6B0"/>
<path d="M152.991 0H135.985V17.0053H152.991V0Z" fill="#B3DDCF"/>
<path d="M169.995 0H152.99V17.0053H169.995V0Z" fill="#B3DDCF"/>
<path d="M102.506 31.3418V19.4406H105.907V21.1408H107.607V22.841H109.307V21.1408H111.007V19.4406H114.408V31.3418H111.007V24.5411H109.307V27.9415H107.607V24.5411H105.907V31.3418H102.506ZM121.208 21.1408V19.4406H124.609V21.1408H121.208ZM117.808 31.3418V29.6417H121.208V24.5411H119.508V22.841H124.609V29.6417H128.009V31.3418H117.808ZM129.709 31.3418V22.841H139.91V24.5411H141.61V31.3418H138.21V24.5411H133.109V31.3418H129.709ZM148.411 31.3418V24.5411H145.011V22.841H148.411V19.4406H151.811V22.841H155.212V24.5411H151.811V31.3418H148.411ZM160.312 27.9415V19.4406H165.413V24.5411H163.712V27.9415H160.312ZM160.312 31.3418V29.6417H163.712V31.3418H160.312Z" fill="white"/>
</svg>
