<svg width="309" height="58" viewBox="0 0 309 58" fill="none" xmlns="http://www.w3.org/2000/svg">
<path d="M19.3165 19.3164H0V38.6329H19.3165V19.3164Z" fill="#0D7D83"/>
<path d="M19.3165 19.3164H0V38.6329H19.3165V19.3164Z" fill="#0C7272"/>
<path d="M19.3165 0H0V19.3165H19.3165V0Z" fill="#8DC6B0"/>
<path d="M38.6339 0H19.3174V19.3165H38.6339V0Z" fill="#AAD1C3"/>
<path d="M57.9503 0H38.6338V19.3165H57.9503V0Z" fill="#B3DDCF"/>
<path d="M77.2658 19.3164H57.9492V38.6329H77.2658V19.3164Z" fill="#0D7D83"/>
<path d="M38.6339 19.3164H19.3174V38.6329H38.6339V19.3164Z" fill="#0D7D83"/>
<path d="M57.9503 19.3164H38.6338V38.6329H57.9503V19.3164Z" fill="#0D7D83"/>
<path d="M77.2658 19.3164H57.9492V38.6329H77.2658V19.3164Z" fill="#0D7D83"/>
<path d="M77.2658 0H57.9492V19.3165H77.2658V0Z" fill="#8DC6B0"/>
<path d="M96.5822 0H77.2656V19.3165H96.5822V0Z" fill="#B3DDCF"/>
<path d="M115.9 0H96.583V19.3165H115.9V0Z" fill="#B3DDCF"/>
<path d="M135.217 19.3164H115.9V38.6329H135.217V19.3164Z" fill="#0D7D83"/>
<path d="M96.5822 19.3164H77.2656V38.6329H96.5822V19.3164Z" fill="#0D7D83"/>
<path d="M115.9 19.3164H96.583V38.6329H115.9V19.3164Z" fill="#0C7272"/>
<path d="M135.217 19.3164H115.9V38.6329H135.217V19.3164Z" fill="#0D7D83"/>
<path d="M135.217 0H115.9V19.3165H135.217V0Z" fill="#B3DDCF"/>
<path d="M154.531 0H135.215V19.3165H154.531V0Z" fill="#B3DDCF"/>
<path d="M154.531 19.3164H135.215V38.6329H154.531V19.3164Z" fill="#0D7D83"/>
<path d="M19.3165 38.6328H0V57.9494H19.3165V38.6328Z" fill="#74A392"/>
<path d="M38.6339 38.6328H19.3174V57.9494H38.6339V38.6328Z" fill="#AAD1C3"/>
<path d="M57.9503 38.6328H38.6338V57.9494H57.9503V38.6328Z" fill="#B3DDCF"/>
<path d="M77.2658 38.6328H57.9492V57.9494H77.2658V38.6328Z" fill="#B3DDCF"/>
<path d="M96.5822 38.6328H77.2656V57.9494H96.5822V38.6328Z" fill="#B3DDCF"/>
<path d="M115.9 38.6328H96.583V57.9494H115.9V38.6328Z" fill="#B3DDCF"/>
<path d="M135.217 38.6328H115.9V57.9494H135.217V38.6328Z" fill="#B3DDCF"/>
<path d="M154.531 38.6328H135.215V57.9494H154.531V38.6328Z" fill="#B3DDCF"/>
<path d="M212.418 0H193.102V19.3165H212.418V0Z" fill="#B3DDCF"/>
<path d="M231.734 0H212.417V19.3165H231.734V0Z" fill="#B3DDCF"/>
<path d="M251.051 19.3164H231.734V38.6329H251.051V19.3164Z" fill="#0D7D83"/>
<path d="M212.418 19.3164H193.102V38.6329H212.418V19.3164Z" fill="#0D7D83"/>
<path d="M231.734 19.3164H212.417V38.6329H231.734V19.3164Z" fill="#0D7D83"/>
<path d="M251.051 19.3164H231.734V38.6329H251.051V19.3164Z" fill="#0D7D83"/>
<path d="M251.051 0H231.734V19.3165H251.051V0Z" fill="#B3DDCF"/>
<path d="M270.366 0H251.05V19.3165H270.366V0Z" fill="#B3DDCF"/>
<path d="M289.684 0H270.367V19.3165H289.684V0Z" fill="#8DC6B0"/>
<path d="M309 19.3164H289.684V38.6329H309V19.3164Z" fill="#0D7D83"/>
<path d="M270.366 19.3164H251.05V38.6329H270.366V19.3164Z" fill="#0C7272"/>
<path d="M289.684 19.3164H270.367V38.6329H289.684V19.3164Z" fill="#0D7D83"/>
<path d="M309 19.3164H289.684V38.6329H309V19.3164Z" fill="#0C7272"/>
<path d="M309 0H289.684V19.3165H309V0Z" fill="#74A392"/>
<path d="M212.418 38.6328H193.102V57.9494H212.418V38.6328Z" fill="#B3DDCF"/>
<path d="M231.734 38.6328H212.417V57.9494H231.734V38.6328Z" fill="#B3DDCF"/>
<path d="M251.051 38.6328H231.734V57.9494H251.051V38.6328Z" fill="#8DC6B0"/>
<path d="M270.366 38.6328H251.05V57.9494H270.366V38.6328Z" fill="#B3DDCF"/>
<path d="M289.684 38.6328H270.367V57.9494H289.684V38.6328Z" fill="#8DC6B0"/>
<path d="M309 38.6328H289.684V57.9494H309V38.6328Z" fill="#74A392"/>
<path d="M173.784 19.3164H154.468V38.6329H173.784V19.3164Z" fill="#0C7272"/>
<path d="M193.101 19.3164H173.784V38.6329H193.101V19.3164Z" fill="#0D7D83"/>
<path d="M173.784 38.6328H154.468V57.9494H173.784V38.6328Z" fill="#B3DDCF"/>
<path d="M193.101 38.6328H173.784V57.9494H193.101V38.6328Z" fill="#8DC6B0"/>
<path d="M173.784 0H154.468V19.3165H173.784V0Z" fill="#B3DDCF"/>
<path d="M193.101 0H173.784V19.3165H193.101V0Z" fill="#B3DDCF"/>
<path d="M12.325 33.4438V22.55H21.6625V24.1062H23.2187V28.775H21.6625V30.3312H15.4375V33.4438H12.325ZM15.4375 28.775H20.1062V24.1062H15.4375V28.775ZM26.3312 33.4438V31.8875H29.4437V24.1062H27.8875V22.55H32.5562V31.8875H35.6687V33.4438H26.3312ZM38.7812 33.4438V31.8875H37.225V27.2188H38.7812V25.6625H46.5625V27.2188H48.1187V30.3312H40.3375V31.8875H46.5625V33.4438H38.7812ZM40.3375 28.775H45.0062V27.2188H40.3375V28.775ZM51.2312 33.4438V31.8875H49.675V30.3312H51.2312V28.775H57.4562V27.2188H51.2312V25.6625H59.0125V27.2188H60.5687V33.4438H51.2312ZM52.7875 31.8875H57.4562V30.3312H52.7875V31.8875ZM62.125 33.4438V31.8875H69.9062V30.3312H63.6812V28.775H62.125V27.2188H63.6812V25.6625H71.4625V27.2188H65.2375V28.775H71.4625V30.3312H73.0187V31.8875H71.4625V33.4438H62.125ZM76.1312 33.4438V31.8875H74.575V27.2188H76.1312V25.6625H83.9125V27.2188H85.4687V30.3312H77.6875V31.8875H83.9125V33.4438H76.1312ZM77.6875 28.775H82.3562V27.2188H77.6875V28.775ZM102.587 31.8875H104.144V33.4438H101.031V31.8875H99.475V25.6625H102.587V31.8875ZM105.7 25.6625V31.8875H104.144V25.6625H105.7ZM110.369 25.6625V31.8875H108.812V33.4438H105.7V31.8875H107.256V25.6625H110.369ZM113.481 33.4438V31.8875H111.925V30.3312H113.481V28.775H119.706V27.2188H113.481V25.6625H121.262V27.2188H122.819V33.4438H113.481ZM115.037 31.8875H119.706V30.3312H115.037V31.8875ZM129.044 24.1062V22.55H132.156V24.1062H129.044ZM125.931 33.4438V31.8875H129.044V27.2188H127.487V25.6625H132.156V31.8875H135.269V33.4438H125.931ZM141.494 33.4438V27.2188H138.381V25.6625H141.494V22.55H144.606V25.6625H147.719V27.2188H144.606V33.4438H141.494ZM150.831 35V33.4438H152.387V30.3312H155.5V33.4438H153.944V35H150.831ZM163.281 33.4438V31.8875H161.725V27.2188H163.281V25.6625H172.619V27.2188H164.837V31.8875H172.619V33.4438H163.281ZM174.175 33.4438V22.55H177.287V25.6625H183.512V27.2188H185.069V33.4438H181.956V27.2188H177.287V33.4438H174.175ZM188.181 33.4438V31.8875H186.625V27.2188H188.181V25.6625H195.963V27.2188H197.519V30.3312H189.737V31.8875H195.963V33.4438H188.181ZM189.737 28.775H194.406V27.2188H189.737V28.775ZM200.631 33.4438V31.8875H199.075V27.2188H200.631V25.6625H209.969V27.2188H202.187V31.8875H209.969V33.4438H200.631ZM211.525 33.4438V22.55H214.637V28.775H217.75V27.2188H219.306V25.6625H222.419V27.2188H220.862V28.775H219.306V30.3312H220.862V31.8875H222.419V33.4438H219.306V31.8875H217.75V30.3312H214.637V33.4438H211.525ZM228.644 24.1062V22.55H231.756V24.1062H228.644ZM225.531 33.4438V31.8875H228.644V27.2188H227.087V25.6625H231.756V31.8875H234.869V33.4438H225.531ZM236.425 33.4438V25.6625H245.762V27.2188H247.319V33.4438H244.206V27.2188H239.537V33.4438H236.425ZM250.431 35V33.4438H256.656V31.8875H250.431V30.3312H248.875V27.2188H250.431V25.6625H259.769V33.4438H258.213V35H250.431ZM251.987 30.3312H256.656V27.2188H251.987V30.3312ZM275.331 33.4438V31.8875H273.775V22.55H276.887V28.775H278.444V22.55H280V28.775H281.556V22.55H284.669V31.8875H283.112V33.4438H281.556V31.8875H280V30.3312H278.444V31.8875H276.887V33.4438H275.331ZM287.781 33.4438V22.55H290.894V31.8875H297.119V33.4438H287.781Z" fill="white"/>
</svg>
